<svg xmlns="http://www.w3.org/2000/svg" xml:space="preserve" fill-rule="evenodd" stroke-linejoin="round" stroke-miterlimit="2" clip-rule="evenodd" viewBox="0 0 589 160"><path d="M36.149.65c-3.019.78-6.803 2.318-10.008 4.066-4.697 2.562-10.274 7.342-11.446 9.812-.546 1.151-.557 2.298-.025 2.503 1.04.399 2.012-.318 5.85-4.31 3.648-3.793 6.64-6.388 9.417-8.166 1.696-1.086 6.323-3.346 7.931-3.873 1.382-.453 1.793-.711 1.089-.684-.187.008-1.45.3-2.808.652M112.72.263c-4.715.74-8.662 2.48-11.151 4.915-2.644 2.587-1.832 2.91 2.052.815 3.322-1.791 6.111-2.868 10.367-4.001 3.411-.908 4.248-1.259 3.882-1.624-.293-.294-3.53-.36-5.15-.105M62.632 4.089c-.624.363-.608 1.479.03 2.116.277.278 1.716 1.216 3.197 2.084 6.554 3.844 10.01 7.745 12.52 14.13.586 1.49.632 1.545.489.56-.595-4.083-2.847-9.319-5.427-12.615-3.501-4.476-8.709-7.499-10.81-6.275m76.264 1.278c0 .155.949.674 2.109 1.153 3.128 1.291 5.708 2.691 7.626 4.138 2.156 1.628 1.757.803-.675-1.392-2.24-2.022-5.726-3.86-7.675-4.047-.858-.082-1.385-.026-1.385.148M43.107 7.33c-7.89.753-15.577 4.214-21.406 9.64-8.477 7.89-13.752 21.069-12.606 31.492.171 1.548.336 2.841.368 2.873.032.032.206-1.62.387-3.672 1.416-16.032 9.833-27.491 23.717-32.291 4.02-1.39 7.055-1.88 11.58-1.868 6.265.015 10.314 1.01 19.25 4.733 4.124 1.718 5.47 2.165 6.329 2.102.883-.065 1.106-.194 1.175-.674.297-2.09-4.894-6.808-10.146-9.22-5.443-2.5-12.588-3.693-18.648-3.115m76.195.476c-16.42.723-29.76 10.75-35.881 26.976l-1.03 2.727-.332-.92c-.608-1.681-3.04-5.08-5.063-7.078-4.397-4.34-10.335-7.38-17.374-8.893-3.684-.792-11.047-.854-14.737-.123-12.3 2.436-22.036 9.63-27.297 20.173-4.808 9.634-5.666 22.44-2.208 32.927 2.408 7.3 7.309 14.582 14.564 21.639 5.205 5.063 10.991 9.782 16.691 13.613 5.278 3.547 8.176 4.598 8.397 3.045.144-1.018-.919-2.377-5.839-7.464-5.29-5.469-7.465-8.067-10.2-12.18-7.937-11.939-9.926-25.814-5.388-37.582 2.288-5.932 7.68-11.408 13.649-13.862.858-.353 1.523-.68 1.477-.726-.187-.187-6.843 1.586-8.817 2.348-6.517 2.518-12.291 7.479-15.732 13.517-1.321 2.318-1.484 2.335-.706.073 2.828-8.22 10.011-14.833 18.678-17.197 12.134-3.31 25.514 2.296 31.074 13.018 1.763 3.4 2.383 5.756 2.36 8.968-.023 3.192-.618 5.088-2.164 6.894-2.09 2.443-4.143 3.081-9.817 3.054-3.765-.017-3.875-.001-4.695.688-.705.593-.838.898-.838 1.915 0 2.53 2.583 5.887 5.883 7.646 7.096 3.78 15.976 1.035 19.417-6.002 1.71-3.497 1.988-5.46 2.455-17.324.139-3.518.44-7.457.669-8.755 1.798-10.189 7.698-18.249 16.313-22.286 8.032-3.763 18.248-3.469 26.696.77 3.228 1.62 5.864 3.574 8.869 6.575 3.124 3.119 4.66 5.185 2.232 3.002-4.882-4.39-12.29-7.872-18.526-8.709-3.228-.433-7.953-.196-10.783.54-7.688 2.003-13.257 6.61-16.962 14.032-1.588 3.18-1.68 3.896-.16 1.245 2.335-4.074 6.283-7.746 10.273-9.555 3.114-1.413 4.824-1.734 9.273-1.743 4.874-.01 7.522.547 11.447 2.407 10.29 4.875 16.446 14.33 17.575 27 .633 7.106-.643 13.86-3.709 19.622-.676 1.272-1.23 2.364-1.23 2.427 0 .31 1.773-1.987 3.602-4.666 5.09-7.455 8.646-15.486 10.176-22.98.637-3.116.687-3.836.568-8.179-.108-3.964-.247-5.209-.83-7.427-3.293-12.528-13.894-22.507-27.122-25.53-3.013-.689-8.695-.951-11.744-.544-4.434.593-9.327 2.236-11.975 4.02-1.641 1.105-1.86 1.232-1.86 1.074 0-.375 3.747-2.738 6.27-3.952 5.699-2.744 10.873-3.7 18.9-3.492 3.918.101 5.862.281 8.02.741 13.887 2.962 23.636 11.926 27.088 24.906.411 1.546.656 2.135.664 1.6.02-1.311-1.177-5.71-2.277-8.368-3.96-9.564-11.14-16.798-20.458-20.606-5.358-2.19-11.723-3.294-17.526-3.039m-81.13 8.387c-2.653.48-4.723 1.257-6.153 2.308-1.068.786-1.672 1.742-1.32 2.093.087.088 1.843-.646 3.902-1.63 3.31-1.583 5.84-2.588 7.553-3.001 1.275-.308-2.086-.113-3.983.23M4.677 27.494c-.975 2.034-1.68 5.962-1.07 5.962.313 0 1.737-5.537 1.626-6.319-.078-.554-.138-.516-.556.357M110.411 39.84c-2.087.908-1.675 2.336 1.073 3.72 5.688 2.865 8.756 6.408 10.582 12.222.574 1.829.635 2.514.616 6.928-.02 4.381-.097 5.178-.733 7.551-.903 3.369-2.625 7.303-4.362 9.965-1.53 2.345-4.54 6.118-4.729 5.929-.068-.069.079-.78.327-1.58.6-1.936.835-7.25.425-9.606-.865-4.965-4.155-9.947-8.867-13.424-.898-.663-2.065-1.426-2.593-1.696-.794-.406-.583-.108 1.225 1.73 3.482 3.535 5.162 7.001 5.499 11.34.63 8.146-4.128 15.643-15.56 24.511-11.163 8.66-14.603 13.912-14.58 22.26.01 3.578.628 6.077 3 12.115 2.755 7.012 3.096 8.614 3.112 14.583.014 5.153-.22 6.75-1.785 12.17-.752 2.603.696 1.481 2.36-1.829 2.247-4.47 3.536-8.865 5.17-17.631 1.58-8.481 2.688-11.643 5.654-16.138 2.826-4.283 5.8-7.126 16.118-15.41 11.26-9.04 15.773-13.948 19.303-20.99 5.2-10.371 5.95-23.738 1.83-32.532-3.298-7.036-9.071-12.153-15.821-14.021-2.379-.659-5.946-.74-7.264-.167m52.171 5.295c-.163.305-.599 2.608-.968 5.119-.764 5.189-1.374 8.356-1.924 9.978l-.378 1.117.947-1.088c1.363-1.567 3.05-4.94 3.556-7.11.55-2.357.595-6.538.082-7.59-.477-.982-.938-1.13-1.315-.426m-112.4 2.93c-1.457.242-4.3 1.265-6.018 2.165-7.027 3.683-11.238 10.991-11.19 19.419.027 4.728.924 8.234 3.34 13.062 3.728 7.447 11.263 14.948 19.548 19.458l2.998 1.632-.19 1.088c-.37 2.132-.13 5.09.596 7.348 1.285 3.996 3.507 7.205 10.189 14.715 2.346 2.637 4.972 5.732 5.836 6.877 1.942 2.576 4.086 6.859 4.79 9.566.904 3.48 1.233 3.762 1.884 1.612.917-3.029-.239-6.657-4.673-14.674-5.507-9.955-6.973-14.128-6.973-19.846 0-6.75 3.354-12.323 10.714-17.803 4.956-3.69 8.414-6.003 8.1-5.417-.158.296-1.057 1.553-1.999 2.794-3.814 5.027-4.586 6.145-5.012 7.261-.89 2.33.544 2.536 4.255.608 5.794-3.009 10.798-8.688 12.882-14.62.78-2.222.83-2.611.83-6.314 0-3.72-.047-4.073-.823-6.167-.453-1.222-1.243-2.926-1.755-3.785-.931-1.562-5.38-6.507-5.63-6.258-.072.073.061.615.297 1.205.236.59.631 2.217.878 3.617 1.431 8.109-1.96 14.888-9.24 18.477-3.414 1.683-6.27 2.436-9.959 2.626-6.182.319-12.202-1.903-15.787-5.825-5.347-5.85-4.454-13.386 2.105-17.773 1.811-1.212 1.943-1.356 1.236-1.356-2.557 0-6.28 1.888-8.626 4.376-2.06 2.183-3.282 4.564-3.84 7.483-.507 2.652-.5 4.262.035 6.849 1.417 6.862 6.883 12.786 14.533 15.752l.956.37-1.225-.167c-.673-.092-2.37-.575-3.77-1.073-7.966-2.835-13.615-8.893-15.583-16.706-.77-3.06-.626-8.432.3-11.169 1.8-5.327 6.054-9.385 11.161-10.65 1.022-.252 2.879-.348 5.851-.301 4.679.073 5.435-.086 6.024-1.266 1.04-2.087-3.173-5.476-8.504-6.84-1.981-.506-6.48-.69-8.54-.35m62.588 7.068c0 .407.71 1.879 1.623 3.364 2.082 3.389 4.231 7.786 4.806 9.834.247.883.495 1.56.55 1.504.196-.196-.464-5.518-.9-7.261-.571-2.281-1.218-3.771-2.424-5.59-1.51-2.273-3.655-3.36-3.655-1.85M.188 59.193c-.117.288-.202 1.87-.189 3.516.025 3.186.687 6.598 1.768 9.11.617 1.433 1.453 2.385 1.718 1.956.09-.145-.214-1.837-.674-3.76-.46-1.923-1.075-5.147-1.367-7.164-.536-3.7-.857-4.634-1.256-3.657m7.996 17.983c-.368.369-.164 2.81.387 4.62 1.552 5.098 6.175 11.573 11.27 15.782 2.665 2.203 2.77 2.227 1.11.26-3.499-4.15-6.155-8.897-8.413-15.036-1.366-3.713-1.66-4.338-2.44-5.195-.535-.588-1.533-.812-1.914-.431m140.464 8.744c-.35.418-1.593 2.352-2.762 4.297-2.31 3.844-3.733 5.847-5.671 7.984-.689.759-1.196 1.38-1.128 1.38.423 0 3.511-2.328 5.153-3.885 3.147-2.985 6.06-7.675 6.078-9.79.008-1.007-.823-1-1.67.014m-33.566 10.73c-1.088.588-4.964 4.034-7.628 6.781-3.081 3.177-6.696 7.358-6.517 7.537.197.198 4.188-2.918 6.936-5.415 3.277-2.979 8.24-8.708 7.865-9.082-.063-.063-.358.017-.656.178m10.724 4.87c-1.793 1.274-2.89 2.37-4.217 4.22-3.52 4.898 1.654 2.06 5.436-2.982.542-.722.985-1.487.985-1.7 0-.638-.93-.442-2.204.463m-50.54 3.954c-.74 1.45-1.243 4.194-1.056 5.768.16 1.356.945 3.306 1.33 3.306.122 0 .222-1.144.222-2.542s.136-3.552.302-4.787c.363-2.7.045-3.398-.798-1.745m51.614 4.924c-.685.71-2.258 2.64-3.495 4.286a1081.1 1081.1 0 0 1-2.554 3.39c-.666.87 1.518-.914 4.02-3.281 2.675-2.533 4.247-4.48 4.247-5.26 0-.807-.974-.427-2.218.865m-81.324 6.982c0 .641 1.99 2.95 4.38 5.082a350.19 350.19 0 0 1 3.878 3.515c1.858 1.72 1.705 1.28-.672-1.935-3.427-4.636-7.586-8.288-7.586-6.662m56.659 5.71c-1.421 1.541-2.858 4.39-3.729 7.397-.375 1.295-.68 2.493-.677 2.664.002.17.531-.67 1.176-1.868.645-1.197 1.986-3.463 2.98-5.035 1.771-2.8 2.26-4.05 1.664-4.263-.163-.059-.8.438-1.414 1.104m-32.712 12.846c0 .321 6.6 14.827 6.7 14.727.121-.121-.685-3.865-1.243-5.772-1.076-3.675-4.122-9.117-5.105-9.117-.193 0-.352.073-.352.162"/><g fill-rule="nonzero"><path d="M199.256 36.63h8.95l13.246 39.012 13.161-39.012h8.853V82.77h-5.938V55.547c0-.965.022-2.52.065-4.663.043-2.197.064-4.555.064-7.02L224.501 82.77h-6.19l-13.246-38.905v1.394c0 1.125.027 2.893.075 5.198.054 2.304.08 4.019.08 5.09V82.77h-5.964V36.63ZM246.183 36.63h7.288l13.247 22.185L279.97 36.63h7.314l-17.426 27.544V82.77h-6.249V64.174L246.183 36.63Z"/></g><g fill-rule="nonzero"><path d="M321.95 77.986c-3.456 3.161-7.871 4.77-13.251 4.77-6.656 0-11.891-2.144-15.696-6.431-3.81-4.287-5.718-10.182-5.718-17.63 0-8.092 2.165-14.309 6.5-18.703 3.767-3.804 8.564-5.68 14.383-5.68 7.786 0 13.477 2.519 17.078 7.663 1.989 2.84 3.055 5.734 3.205 8.628h-9.673c-.627-2.198-1.43-3.912-2.416-5.038-1.758-1.982-4.368-3-7.819-3-3.515 0-6.29 1.393-8.322 4.233-2.03 2.84-3.044 6.86-3.044 12.057 0 5.198 1.072 9.056 3.216 11.682 2.148 2.572 4.876 3.858 8.182 3.858 3.392 0 5.975-1.125 7.754-3.322.987-1.179 1.801-3 2.45-5.359h9.576c-.836 5.037-2.97 9.11-6.404 12.272ZM352.989 82.755c-6.613 0-11.666-1.822-15.166-5.412-4.688-4.394-7.03-10.771-7.03-19.077 0-8.467 2.342-14.844 7.03-19.078 3.5-3.644 8.553-5.412 15.166-5.412 6.618 0 11.671 1.768 15.17 5.412 4.668 4.234 6.999 10.61 6.999 19.078 0 8.306-2.331 14.683-6.999 19.077-3.499 3.59-8.552 5.412-15.17 5.412Zm9.142-12.432c2.24-2.84 3.36-6.86 3.36-12.057 0-5.198-1.126-9.217-3.376-12.058-2.251-2.84-5.295-4.233-9.126-4.233-3.826 0-6.886 1.393-9.164 4.233-2.283 2.84-3.424 6.86-3.424 12.058 0 5.198 1.141 9.217 3.424 12.057 2.278 2.84 5.338 4.233 9.164 4.233 3.831 0 6.88-1.393 9.142-4.233ZM388.174 81.469h-9.008v-46.3h14.067l8.413 36.386L410 35.17h13.906v46.3h-9.008V50.174c0-.911.011-2.197.032-3.805.022-1.607.033-2.894.033-3.751L406.2 81.469h-9.388l-8.698-38.851c0 .857.011 2.144.032 3.751.022 1.608.027 2.894.027 3.805v31.295ZM449.328 64.803H439.5V81.47h-9.608v-46.3h20.16c4.646 0 8.354 1.18 11.114 3.59 2.765 2.412 4.147 6.056 4.147 11.093 0 5.466-1.382 9.325-4.147 11.575-2.76 2.25-6.71 3.376-11.838 3.376Zm4.523-9.645c1.254-1.072 1.886-2.84 1.886-5.252 0-2.411-.637-4.126-1.902-5.144-1.265-1.019-3.038-1.555-5.321-1.555H439.5v13.665h9.014c2.283 0 4.062-.59 5.337-1.714ZM491.946 71.93h-17.051l-3.205 9.539h-10.106l16.515-46.3h10.927l16.387 46.3h-10.487l-2.98-9.539Zm-2.7-7.93-5.777-18.22-5.97 18.22h11.747ZM545.502 81.469h-9.673l-18.9-32.903V81.47h-9.013v-46.3h10.138l18.434 32.314V35.169h9.014v46.3ZM588.661 35.17 573.18 64.052v17.416h-9.673V64.053l-16.012-28.884h11.398l9.609 20.15 9.2-20.15h10.96Z"/></g><g fill-rule="nonzero"><path d="M201.937 95.854c.049-1.35.282-2.332.702-2.945.755-1.105 2.21-1.657 4.37-1.657h.629c.214.03.46.03.736.061v2.946c-.338 0-.58-.03-.727-.03h-.424c-.982 0-1.57.245-1.76.736-.194.521-.29 1.81-.29 3.896h3.201v2.547h-3.237v16.63h-3.2v-16.63h-2.68v-2.547h2.68v-3.007ZM209.607 98.77h3.075v3.344c.252-.645.868-1.442 1.85-2.363.985-.951 2.117-1.411 3.4-1.411.058 0 .16 0 .304.03.144 0 .39.031.74.062v3.436c-.194-.061-.372-.061-.532-.092h-.53c-1.63 0-2.885.522-3.76 1.565-.874 1.043-1.313 2.24-1.313 3.62v11.078h-3.234v-19.27ZM227.956 98.34c1.366 0 2.691.337 3.974.982 1.282.613 2.258 1.472 2.93 2.485.647.951 1.077 2.086 1.295 3.375.19.89.288 2.301.288 4.265H222.33c.058 1.933.521 3.529 1.384 4.695.862 1.196 2.2 1.78 4.01 1.78 1.688 0 3.038-.553 4.044-1.688a5.552 5.552 0 0 0 1.224-2.24h3.182c-.086.706-.365 1.503-.837 2.363a9.344 9.344 0 0 1-1.59 2.147c-.985.952-2.2 1.596-3.651 1.933-.78.185-1.66.277-2.642.277-2.396 0-4.43-.86-6.097-2.608-1.663-1.75-2.497-4.204-2.497-7.334 0-3.099.837-5.584 2.516-7.517 1.678-1.933 3.872-2.915 6.581-2.915Zm5.161 8.53c-.132-1.412-.439-2.516-.917-3.375-.887-1.535-2.369-2.332-4.443-2.332-1.485 0-2.731.552-3.737 1.626-1.007 1.074-1.54 2.424-1.602 4.08h10.7ZM246.593 98.34c1.366 0 2.691.337 3.974.982 1.283.613 2.258 1.472 2.93 2.485.648.951 1.077 2.086 1.295 3.375.19.89.285 2.301.285 4.265h-14.11c.057 1.933.52 3.529 1.383 4.695.862 1.196 2.2 1.78 4.01 1.78 1.688 0 3.038-.553 4.044-1.688a5.546 5.546 0 0 0 1.222-2.24h3.181c-.082.706-.362 1.503-.834 2.363a9.264 9.264 0 0 1-1.593 2.147c-.981.952-2.197 1.596-3.648 1.933-.78.185-1.66.277-2.642.277-2.4 0-4.43-.86-6.097-2.608-1.666-1.75-2.497-4.204-2.497-7.334 0-3.099.837-5.584 2.516-7.517 1.678-1.933 3.872-2.915 6.581-2.915Zm5.158 8.53c-.132-1.412-.435-2.516-.914-3.375-.89-1.535-2.369-2.332-4.443-2.332-1.485 0-2.73.552-3.737 1.626-1.01 1.074-1.54 2.424-1.602 4.08h10.696ZM257.302 91.62h3.237v26.41h-3.237zM271.192 115.952c2.145 0 3.615-.828 4.413-2.455.798-1.595 1.196-3.405 1.196-5.4 0-1.81-.288-3.252-.865-4.388-.908-1.78-2.48-2.67-4.71-2.67-1.976 0-3.415.768-4.314 2.271-.899 1.504-1.347 3.345-1.347 5.462 0 2.056.448 3.774 1.347 5.124.9 1.381 2.326 2.056 4.28 2.056Zm.126-17.735c2.48 0 4.578.828 6.29 2.485 1.716 1.657 2.572 4.081 2.572 7.303 0 3.1-.755 5.676-2.265 7.702-1.51 2.025-3.854 3.037-7.03 3.037-2.647 0-4.752-.89-6.311-2.7-1.559-1.78-2.335-4.204-2.335-7.21 0-3.253.82-5.83 2.46-7.733 1.642-1.933 3.849-2.884 6.62-2.884ZM288.983 98.432c1.51 0 2.829.368 3.955 1.135.61.399 1.233 1.013 1.869 1.81v-2.424h2.985v17.52c0 2.455-.359 4.358-1.08 5.8-1.34 2.608-3.875 3.897-7.603 3.897-2.075 0-3.817-.46-5.232-1.381-1.414-.92-2.206-2.393-2.375-4.357h3.293c.153.859.466 1.534.932 1.994.734.706 1.884 1.074 3.452 1.074 2.483 0 4.106-.859 4.873-2.639.457-1.012.666-2.853.629-5.492-.648.982-1.424 1.688-2.335 2.179-.912.49-2.117.736-3.615.736-2.086 0-3.912-.767-5.474-2.24-1.565-1.473-2.347-3.927-2.347-7.333 0-3.222.789-5.738 2.366-7.548 1.574-1.81 3.476-2.731 5.707-2.731Zm5.824 9.88c0-2.363-.491-4.142-1.473-5.278-.982-1.166-2.237-1.749-3.759-1.749-2.277 0-3.835 1.074-4.673 3.222-.445 1.135-.666 2.608-.666 4.48 0 2.148.442 3.805 1.323 4.94.88 1.135 2.065 1.688 3.55 1.688 2.325 0 3.96-1.044 4.909-3.13.525-1.197.789-2.578.789-4.173ZM308.464 115.952c2.145 0 3.617-.828 4.415-2.455.795-1.595 1.194-3.405 1.194-5.4 0-1.81-.286-3.252-.862-4.388-.912-1.78-2.483-2.67-4.71-2.67-1.98 0-3.415.768-4.314 2.271-.9 1.504-1.35 3.345-1.35 5.462 0 2.056.45 3.774 1.35 5.124.899 1.381 2.322 2.056 4.277 2.056Zm.126-17.735c2.482 0 4.578.828 6.293 2.485 1.715 1.657 2.571 4.081 2.571 7.303 0 3.1-.755 5.676-2.264 7.702-1.513 2.025-3.854 3.037-7.03 3.037-2.651 0-4.753-.89-6.312-2.7-1.558-1.78-2.338-4.204-2.338-7.21 0-3.253.823-5.83 2.464-7.733 1.642-1.933 3.848-2.884 6.616-2.884ZM320.234 114.111h3.759v3.918h-3.759zM327.85 98.77h3.2v2.73c.767-.92 1.46-1.626 2.083-2.056 1.068-.736 2.28-1.104 3.633-1.104 1.535 0 2.768.399 3.704 1.135.528.43 1.006 1.074 1.439 1.902.718-1.012 1.565-1.78 2.534-2.27.97-.522 2.062-.767 3.271-.767 2.59 0 4.351.95 5.287 2.823.503 1.012.755 2.362.755 4.05v12.826h-3.363V104.66c0-1.29-.32-2.179-.96-2.64-.642-.49-1.424-.736-2.348-.736-1.27 0-2.362.43-3.28 1.289-.917.86-1.374 2.27-1.374 4.265v11.2h-3.293v-12.58c0-1.29-.153-2.24-.466-2.854-.491-.89-1.409-1.35-2.75-1.35-1.224 0-2.334.49-3.335 1.442-1 .92-1.503 2.639-1.503 5.124v10.218h-3.234v-19.27ZM364.698 98.34c1.365 0 2.69.337 3.973.982 1.283.613 2.259 1.472 2.93 2.485.648.951 1.08 2.086 1.295 3.375.19.89.289 2.301.289 4.265H359.07c.062 1.933.522 3.529 1.384 4.695.865 1.196 2.2 1.78 4.01 1.78 1.691 0 3.038-.553 4.045-1.688a5.516 5.516 0 0 0 1.224-2.24h3.182c-.083.706-.362 1.503-.838 2.363a9.344 9.344 0 0 1-1.59 2.147c-.981.952-2.2 1.596-3.65 1.933-.78.185-1.66.277-2.643.277-2.396 0-4.427-.86-6.093-2.608-1.666-1.75-2.501-4.204-2.501-7.334 0-3.099.84-5.584 2.52-7.517 1.674-1.933 3.868-2.915 6.578-2.915Zm5.16 8.53c-.131-1.412-.438-2.516-.917-3.375-.887-1.535-2.369-2.332-4.44-2.332-1.488 0-2.734.552-3.74 1.626-1.006 1.074-1.54 2.424-1.602 4.08h10.7Z"/></g></svg>